<svg width="114" height="60" viewBox="0 0 114 60" fill="none" xmlns="http://www.w3.org/2000/svg">
<g clip-path="url(#clip0_69_5)">
<path d="M0.539795 55.4467V55.1148L1.67855 55.041V45.3277L0.539795 45.2538V44.922H7.82339L7.8973 47.9236H7.58676C7.52758 47.5892 7.46351 47.3068 7.39448 47.0757C7.33041 46.8394 7.23673 46.6036 7.11351 46.3674C6.99026 46.1316 6.84484 45.9449 6.6772 45.8068C6.51453 45.6646 6.30256 45.5488 6.04128 45.4603C5.78497 45.3717 5.48672 45.3277 5.14657 45.3277C4.72755 45.3277 4.20253 45.352 3.57153 45.4015V49.7824C3.71943 49.7971 3.98809 49.8046 4.37751 49.8046C4.89514 49.8046 5.26486 49.6792 5.48672 49.4282C5.70854 49.1727 5.81947 48.7103 5.81947 48.042H6.22617V52.0024H5.81947C5.81947 51.3336 5.7061 50.8691 5.47932 50.6085C5.25746 50.3429 4.89022 50.2103 4.37751 50.2103C3.99795 50.2103 3.72928 50.2175 3.57153 50.2322V54.9671C4.20253 55.0166 4.82859 55.041 5.44975 55.041C5.74059 55.041 5.99695 55.0187 6.21876 54.9747C6.44058 54.9256 6.63286 54.8467 6.79553 54.7389C6.95821 54.6306 7.09623 54.5102 7.20964 54.3772C7.32301 54.2396 7.42161 54.065 7.50541 53.8536C7.59412 53.6421 7.66564 53.4306 7.71986 53.2192C7.77408 53.0081 7.83075 52.7471 7.88993 52.4375H8.20787L8.12656 55.4467H0.539795ZM9.25049 45.5048V45.2022L10.796 45.0399L11.8386 44.7671L11.9717 44.9811V55.0708L12.7333 55.1442V55.4467H9.3984V55.1442L10.16 55.0708V45.5048H9.25049ZM13.5985 48.6319V48.3294L15.1439 48.167L16.1865 47.8943L16.3196 48.1082V55.0708L17.0813 55.1442V55.4467H13.7463V55.1442L14.508 55.0708V48.6319H13.5985ZM14.4045 45.2761C14.4045 45.1385 14.4291 45.0105 14.4784 44.8926C14.5326 44.7743 14.6041 44.671 14.6928 44.5825C14.7816 44.4944 14.8851 44.4252 15.0034 44.3761C15.1217 44.327 15.2474 44.3022 15.3805 44.3022C15.5136 44.3022 15.6393 44.3295 15.7577 44.3836C15.876 44.4327 15.9795 44.5015 16.0682 44.5901C16.1619 44.6786 16.2333 44.7818 16.2826 44.8997C16.3369 45.018 16.364 45.1431 16.364 45.2761C16.364 45.4087 16.3369 45.5341 16.2826 45.652C16.2333 45.7703 16.1644 45.8757 16.0756 45.9692C15.9869 46.0578 15.8834 46.1291 15.7651 46.1832C15.6467 46.2323 15.5186 46.2571 15.3805 46.2571C15.2425 46.2571 15.1143 46.2323 14.996 46.1832C14.8777 46.1291 14.7742 46.0578 14.6855 45.9692C14.5967 45.8807 14.5277 45.7775 14.4784 45.6596C14.4291 45.5417 14.4045 45.4137 14.4045 45.2761ZM17.9686 55.4467V55.1442L18.745 55.0708L20.6232 52.2017L18.257 48.4254L17.5323 48.3441V48.042H21.0595V48.3441L20.2609 48.4254L21.7768 50.8372L23.3148 48.4254L22.494 48.3441V48.042H24.5719V48.3441L23.7955 48.4254L22.0134 51.206L24.4536 55.0708L25.1782 55.1442V55.4467H21.6215V55.1442L22.4275 55.0708L20.8673 52.5852L19.2257 55.0708L20.0465 55.1442V55.4467H17.9686ZM25.5775 48.6319V48.3294L27.123 48.167L28.1656 47.8943L28.2987 48.1082V55.0708L29.0603 55.1442V55.4467H25.7254V55.1442L26.487 55.0708V48.6319H25.5775ZM26.3836 45.2761C26.3836 45.1385 26.4082 45.0105 26.4575 44.8926C26.5117 44.7743 26.5832 44.671 26.6719 44.5825C26.7606 44.4944 26.8642 44.4252 26.9825 44.3761C27.1008 44.327 27.2265 44.3022 27.3596 44.3022C27.4927 44.3022 27.6184 44.3295 27.7367 44.3836C27.855 44.4327 27.9586 44.5015 28.0473 44.5901C28.141 44.6786 28.2124 44.7818 28.2617 44.8997C28.316 45.018 28.3431 45.1431 28.3431 45.2761C28.3431 45.4087 28.316 45.5341 28.2617 45.652C28.2124 45.7703 28.1434 45.8757 28.0547 45.9692C27.966 46.0578 27.8624 46.1291 27.7441 46.1832C27.6258 46.2323 27.4976 46.2571 27.3596 46.2571C27.2216 46.2571 27.0934 46.2323 26.9751 46.1832C26.8568 46.1291 26.7533 46.0578 26.6645 45.9692C26.5758 45.8807 26.5068 45.7775 26.4575 45.6596C26.4082 45.5417 26.3836 45.4137 26.3836 45.2761ZM29.9107 48.6319V48.3294L31.4561 48.167L32.4988 47.8943L32.6023 48.1082V49.3766H32.6319C32.7305 49.1799 32.8513 48.9881 32.9942 48.8014C33.1371 48.6147 33.2925 48.4498 33.46 48.3071C33.6326 48.1599 33.815 48.042 34.0072 47.9534C34.1995 47.8649 34.3942 47.8204 34.5914 47.8204C34.9759 47.8204 35.2717 47.9236 35.4787 48.1305C35.6907 48.3319 35.7967 48.6025 35.7967 48.9415C35.7967 49.0842 35.7745 49.2168 35.7302 49.3397C35.6858 49.458 35.6217 49.5613 35.5379 49.6498C35.459 49.7383 35.3604 49.8092 35.2421 49.8634C35.1287 49.9129 35.003 49.9372 34.865 49.9372C34.7171 49.9372 34.584 49.9129 34.4657 49.8634C34.3474 49.8143 34.2464 49.748 34.1625 49.6645C34.0836 49.581 34.0221 49.4849 33.9777 49.3766C33.9333 49.2638 33.9111 49.1434 33.9111 49.0154C33.9111 48.7548 33.9654 48.5631 34.0738 48.4401V48.3957C33.8963 48.4351 33.7213 48.5287 33.5488 48.6759C33.3812 48.8236 33.2283 49.025 33.0903 49.281C32.9523 49.5315 32.8414 49.8365 32.7576 50.1952C32.6738 50.5494 32.6319 50.9501 32.6319 51.3978V55.0708L33.3935 55.1442V55.4467H30.0586V55.1442L30.8202 55.0708V48.6319H29.9107ZM40.0633 50.3723C40.0633 49.8264 40.1225 49.2881 40.2408 48.7573C40.3591 48.2261 40.5464 47.7122 40.8028 47.2158C41.0641 46.719 41.382 46.2839 41.7567 45.9105C42.1312 45.5316 42.5948 45.2291 43.1467 45.0029C43.699 44.7768 44.3052 44.6639 44.9661 44.6639C45.735 44.6639 46.4127 44.8754 46.9995 45.2983C47.586 45.7162 47.8792 46.2126 47.8792 46.7878C47.8792 47.0782 47.7858 47.3266 47.5982 47.533C47.416 47.7394 47.1645 47.8427 46.8439 47.8427C46.5385 47.8427 46.2895 47.7491 46.0972 47.5624C45.905 47.3706 45.8087 47.1298 45.8087 46.8394C45.8087 46.5545 45.8999 46.3158 46.0825 46.1241C46.2646 45.9277 46.4918 45.8291 46.7627 45.8291C46.817 45.8291 46.8565 45.8316 46.8809 45.8366V45.8068C46.8073 45.6692 46.6075 45.5144 46.2819 45.3424C45.9567 45.1703 45.5647 45.0843 45.1066 45.0843C44.2093 45.0843 43.4723 45.5488 42.8955 46.4782C42.3188 47.4075 42.0303 48.6344 42.0303 50.1587C42.0303 50.8124 42.087 51.4322 42.2002 52.0171C42.3138 52.5973 42.4812 53.126 42.7033 53.6027C42.93 54.0797 43.2329 54.4607 43.6128 54.746C43.9922 55.0263 44.4259 55.1664 44.9143 55.1664C45.6143 55.1664 46.223 54.96 46.7404 54.5467C47.2633 54.1288 47.6671 53.5955 47.9532 52.9464L48.3007 53.1088C47.5961 54.8396 46.4102 55.7048 44.7439 55.7048C44.0196 55.7048 43.3785 55.6041 42.8215 55.4027C42.2646 55.2008 41.8133 54.9352 41.4683 54.6059C41.1281 54.2715 40.8496 53.8682 40.6327 53.3962C40.4158 52.9242 40.2655 52.445 40.1816 51.9583C40.1028 51.4712 40.0633 50.9429 40.0633 50.3723ZM49.1142 51.7884C49.1142 51.0461 49.2573 50.3723 49.5429 49.7677C49.834 49.1627 50.2382 48.6885 50.7557 48.3441C51.2781 47.995 51.8675 47.8204 52.5229 47.8204C53.0651 47.8204 53.5535 47.9337 53.9872 48.1599C54.426 48.381 54.7759 48.6785 55.0372 49.0523C55.3035 49.4257 55.5054 49.8441 55.6434 50.306C55.7864 50.7634 55.8579 51.2425 55.8579 51.7443C55.8579 52.4668 55.7199 53.126 55.444 53.721C55.168 54.3159 54.7709 54.7905 54.2535 55.1442C53.7407 55.4933 53.1589 55.6678 52.5081 55.6678C51.9314 55.6678 51.4212 55.5671 50.9778 55.3657C50.539 55.1589 50.184 54.8765 49.9126 54.5173C49.6468 54.1536 49.447 53.7428 49.314 53.2859C49.1807 52.8285 49.1142 52.3292 49.1142 51.7884ZM51.0072 51.6999C51.0072 52.2457 51.0341 52.735 51.0884 53.1675C51.1427 53.5955 51.2264 53.9765 51.34 54.3109C51.4531 54.6403 51.6062 54.8937 51.7985 55.0708C51.9907 55.2474 52.2175 55.3359 52.4787 55.3359C53.4694 55.3359 53.9649 54.1536 53.9649 51.7884C53.9649 51.1934 53.9405 50.6824 53.8909 50.2544C53.8467 49.8264 53.7676 49.4505 53.6545 49.1261C53.5459 48.7964 53.3932 48.553 53.1959 48.3957C52.9986 48.2337 52.7597 48.1523 52.4787 48.1523C52.2175 48.1523 51.9907 48.2408 51.7985 48.4179C51.6062 48.595 51.4531 48.8459 51.34 49.1702C51.2264 49.4945 51.1427 49.8659 51.0884 50.2838C51.0341 50.7017 51.0072 51.1737 51.0072 51.6999ZM56.7156 48.3587V48.042H57.8026C57.8077 47.6089 57.8472 47.2183 57.9208 46.8692C57.9949 46.5201 58.0862 46.2348 58.1947 46.0137C58.3032 45.7875 58.4361 45.5933 58.5939 45.4309C58.7567 45.2635 58.9094 45.141 59.0524 45.0621C59.1954 44.9786 59.3557 44.9144 59.5328 44.8703C59.7103 44.8213 59.8534 44.7915 59.9619 44.7818C60.0704 44.7722 60.1886 44.7671 60.3169 44.7671C60.8444 44.7671 61.2533 44.885 61.5444 45.1213C61.8351 45.352 61.9807 45.6474 61.9807 46.0061C61.9807 46.247 61.9016 46.4534 61.7438 46.6259C61.5911 46.7979 61.3842 46.8839 61.1229 46.8839C60.8663 46.8839 60.6619 46.7979 60.5092 46.6259C60.3611 46.4534 60.2871 46.2571 60.2871 46.0355C60.2871 45.8979 60.3144 45.7603 60.3687 45.6227C60.4276 45.48 60.5067 45.3768 60.6051 45.313V45.2832C60.5904 45.2341 60.5462 45.1926 60.4722 45.1582C60.4032 45.1187 60.3216 45.099 60.2282 45.099C60.0902 45.099 59.9766 45.1359 59.8879 45.2098C59.8041 45.2832 59.7427 45.3889 59.7032 45.5266C59.6687 45.6646 59.6464 45.7896 59.6367 45.9029C59.6266 46.0158 59.6216 46.1559 59.6216 46.3234V48.042H61.4039V48.3587L59.6216 48.4326V55.0708L60.6791 55.1442V55.4467H57.0484V55.1442L57.8026 55.0708V48.4326L56.7156 48.3587ZM61.7438 48.3587V48.042H62.8308C62.8359 47.6089 62.8754 47.2183 62.9495 46.8692C63.0231 46.5201 63.1144 46.2348 63.2229 46.0137C63.3314 45.7875 63.4643 45.5933 63.6221 45.4309C63.7849 45.2635 63.9376 45.141 64.0806 45.0621C64.2236 44.9786 64.3839 44.9144 64.5614 44.8703C64.7385 44.8213 64.8816 44.7915 64.9901 44.7818C65.0986 44.7722 65.2168 44.7671 65.3451 44.7671C65.8727 44.7671 66.2815 44.885 66.5726 45.1213C66.8633 45.352 67.0089 45.6474 67.0089 46.0061C67.0089 46.247 66.9298 46.4534 66.772 46.6259C66.6193 46.7979 66.4124 46.8839 66.1511 46.8839C65.8949 46.8839 65.6901 46.7979 65.5374 46.6259C65.3893 46.4534 65.3157 46.2571 65.3157 46.0355C65.3157 45.8979 65.3426 45.7603 65.3969 45.6227C65.4562 45.48 65.5349 45.3768 65.6333 45.313V45.2832C65.6186 45.2341 65.5744 45.1926 65.5004 45.1582C65.4314 45.1187 65.3502 45.099 65.2564 45.099C65.1184 45.099 65.0048 45.1359 64.9161 45.2098C64.8323 45.2832 64.7709 45.3889 64.7314 45.5266C64.6969 45.6646 64.6746 45.7896 64.6649 45.9029C64.6548 46.0158 64.6502 46.1559 64.6502 46.3234V48.042H66.4321V48.3587L64.6502 48.4326V55.0708L65.7073 55.1442V55.4467H62.0766V55.1442L62.8308 55.0708V48.4326L61.7438 48.3587ZM66.9571 51.7443C66.9571 51.3608 66.9941 50.987 67.0682 50.6232C67.1418 50.2544 67.2625 49.9003 67.4304 49.5613C67.5978 49.2218 67.8027 48.9243 68.0441 48.6688C68.2856 48.4129 68.5838 48.2089 68.9389 48.0566C69.2985 47.8993 69.6956 47.8204 70.1293 47.8204C70.5387 47.8204 70.9059 47.8796 71.2311 47.9975C71.5567 48.1108 71.8276 48.2706 72.0446 48.4771C72.2613 48.6835 72.4413 48.9365 72.5843 49.2365C72.7274 49.5315 72.8283 49.8537 72.8876 50.2028C72.9516 50.5468 72.9836 50.9257 72.9836 51.3386L72.7837 51.5228H68.8501V51.973C68.8501 54.1166 69.4613 55.1887 70.6838 55.1887C71.5516 55.1887 72.244 54.7561 72.7619 53.8905L73.05 54.0675C72.4144 55.1345 71.5096 55.6678 70.3363 55.6678C69.2026 55.6678 68.3546 55.3187 67.7926 54.6206C67.2356 53.9224 66.9571 52.9636 66.9571 51.7443ZM68.8501 51.1909L71.2386 51.0952C71.2534 50.8443 71.2605 50.6035 71.2605 50.3723C71.2605 49.6594 71.1743 49.111 71.0018 48.7275C70.8344 48.3441 70.5534 48.1523 70.1588 48.1523C69.9224 48.1523 69.7175 48.2312 69.5451 48.3885C69.3776 48.5408 69.2468 48.762 69.1534 49.0523C69.0596 49.3422 68.9881 49.6594 68.9389 50.0035C68.8943 50.3429 68.8648 50.7386 68.8501 51.1909ZM74.2186 51.7443C74.2186 51.3608 74.2556 50.987 74.3293 50.6232C74.4033 50.2544 74.524 49.9003 74.6919 49.5613C74.8593 49.2218 75.0637 48.9243 75.3056 48.6688C75.5471 48.4129 75.8453 48.2089 76.2004 48.0566C76.56 47.8993 76.9567 47.8204 77.3909 47.8204C77.7997 47.8204 78.167 47.8796 78.4926 47.9975C78.8177 48.1108 79.0891 48.2706 79.3057 48.4771C79.5228 48.6835 79.7028 48.9365 79.8459 49.2365C79.9885 49.5315 80.0898 49.8537 80.1487 50.2028C80.2131 50.5468 80.2451 50.9257 80.2451 51.3386L80.0452 51.5228H76.1116V51.973C76.1116 54.1166 76.7228 55.1887 77.9453 55.1887C78.8131 55.1887 79.5055 54.7561 80.0229 53.8905L80.3115 54.0675C79.6755 55.1345 78.7711 55.6678 77.5978 55.6678C76.4641 55.6678 75.6161 55.3187 75.0541 54.6206C74.4971 53.9224 74.2186 52.9636 74.2186 51.7443ZM76.1116 51.1909L78.4997 51.0952C78.5149 50.8443 78.522 50.6035 78.522 50.3723C78.522 49.6594 78.4358 49.111 78.2633 48.7275C78.0955 48.3441 77.8145 48.1523 77.4203 48.1523C77.1835 48.1523 76.979 48.2312 76.8066 48.3885C76.6391 48.5408 76.5083 48.762 76.4145 49.0523C76.3211 49.3422 76.2496 49.6594 76.2004 50.0035C76.1558 50.3429 76.1263 50.7386 76.1116 51.1909ZM85.1328 45.0696C84.7777 45.0696 84.4647 45.1112 84.1938 45.1947C83.9276 45.2786 83.7033 45.3965 83.5208 45.5488C83.3382 45.7011 83.2002 45.8857 83.1068 46.1022C83.0181 46.3133 82.9735 46.547 82.9735 46.8025C82.9735 46.9846 82.9983 47.1642 83.0475 47.3413C83.0967 47.5183 83.2028 47.7 83.3655 47.8867C83.5279 48.0688 83.7622 48.258 84.0681 48.4548C84.3785 48.6516 84.795 48.8631 85.3174 49.0892C85.919 49.3645 86.4267 49.6225 86.8411 49.8634C87.2601 50.1046 87.6 50.3601 87.8612 50.6308C88.1224 50.901 88.31 51.206 88.4232 51.545C88.5414 51.8794 88.6007 52.2801 88.6007 52.7471C88.6007 53.1013 88.5292 53.4554 88.3862 53.8095C88.2431 54.1632 88.0265 54.4804 87.7354 54.7607C87.4498 55.041 87.0872 55.2696 86.6484 55.4467C86.2147 55.6187 85.7044 55.7048 85.118 55.7048C84.4673 55.7048 83.92 55.6435 83.4762 55.5206C83.0328 55.4027 82.6752 55.2474 82.4043 55.0557C82.1381 54.8639 81.9458 54.6478 81.8276 54.407C81.709 54.1611 81.6501 53.9152 81.6501 53.6694C81.6501 53.507 81.6745 53.3572 81.7237 53.2192C81.7733 53.0769 81.8448 52.954 81.9382 52.8508C82.0371 52.7425 82.1553 52.6586 82.2933 52.5999C82.4363 52.5361 82.5966 52.5038 82.7741 52.5038C82.9365 52.5038 83.0845 52.5336 83.2175 52.5923C83.3508 52.6464 83.4615 52.7228 83.5502 52.821C83.644 52.9145 83.7155 53.0274 83.7648 53.1604C83.819 53.288 83.8459 53.4281 83.8459 53.5808C83.8459 53.9299 83.745 54.193 83.5431 54.3701C83.3407 54.5467 83.0795 54.6352 82.7589 54.6352V54.665C82.7934 54.7041 82.8603 54.7582 82.9588 54.827C83.0622 54.8962 83.2028 54.965 83.3803 55.0338C83.5628 55.1027 83.7845 55.1639 84.0458 55.218C84.312 55.2671 84.625 55.2919 84.9847 55.2919C85.2808 55.2919 85.574 55.2524 85.8647 55.174C86.1604 55.0951 86.4217 54.9822 86.6484 54.8345C86.8802 54.6868 87.0678 54.5077 87.2104 54.2962C87.3534 54.0848 87.425 53.8464 87.425 53.5808C87.425 53.3547 87.3833 53.1432 87.2992 52.9464C87.2155 52.7496 87.0577 52.5508 86.8259 52.3489C86.5946 52.1425 86.2715 51.9239 85.8576 51.6927C85.4483 51.4565 84.9132 51.1909 84.2527 50.8959C83.7648 50.6895 83.363 50.4634 83.0475 50.2175C82.7371 49.9666 82.4906 49.7039 82.308 49.4282C82.1305 49.148 82.0072 48.858 81.9382 48.558C81.8692 48.253 81.8348 47.9408 81.8348 47.6215C81.8348 47.2183 81.9088 46.8369 82.0564 46.4782C82.2045 46.1194 82.4191 45.8068 82.7001 45.5417C82.9811 45.271 83.326 45.0571 83.7353 44.8997C84.1492 44.7424 84.62 44.6639 85.1475 44.6639C85.6552 44.6639 86.0965 44.7227 86.4713 44.841C86.8508 44.9589 87.1637 45.1162 87.4102 45.313C87.6567 45.5048 87.8414 45.7309 87.9647 45.9915C88.0879 46.247 88.1498 46.5151 88.1498 46.7954C88.1498 46.9427 88.1249 47.0853 88.0757 47.2229C88.0265 47.3559 87.955 47.4738 87.8612 47.5771C87.7678 47.6757 87.6517 47.7566 87.5137 47.8204C87.3757 47.8796 87.218 47.9089 87.0405 47.9089C86.8777 47.9089 86.73 47.8821 86.5967 47.828C86.4637 47.7738 86.3481 47.7 86.2492 47.6064C86.1558 47.5133 86.0818 47.4025 86.0275 47.2745C85.9783 47.147 85.9535 47.0068 85.9535 46.8545C85.9535 46.6821 85.9829 46.5298 86.0422 46.3972C86.1015 46.2596 86.1802 46.1463 86.2791 46.0578C86.3826 45.9642 86.5033 45.8954 86.6413 45.8513C86.7792 45.8022 86.9273 45.7775 87.0851 45.7775V45.7481C87.0552 45.7137 86.9963 45.6596 86.9075 45.5857C86.8188 45.5073 86.6955 45.4309 86.5378 45.3571C86.38 45.2786 86.1853 45.2119 85.9535 45.1582C85.7217 45.099 85.4483 45.0696 85.1328 45.0696ZM89.466 45.5048V45.2022L91.0115 45.0399L92.0539 44.7671L92.1574 44.9811V49.1039H92.1869C92.7737 48.2484 93.533 47.8204 94.4648 47.8204C94.6419 47.8204 94.8122 47.8351 94.9746 47.8649C95.1374 47.8943 95.3175 47.9606 95.5148 48.0638C95.7116 48.167 95.882 48.3025 96.025 48.4695C96.1676 48.6369 96.2884 48.8752 96.3872 49.1849C96.4856 49.4945 96.5349 49.8562 96.5349 50.2691V55.0708L97.2891 55.1442V55.4467H93.9617V55.1442L94.7159 55.0708V50.0551C94.7159 49.0078 94.3781 48.4842 93.7029 48.4842C93.2592 48.4842 92.8944 48.686 92.6084 49.0892C92.3274 49.4924 92.1869 50.0207 92.1869 50.6748V55.0708L92.9487 55.1442V55.4467H89.6137V55.1442L90.3755 55.0708V45.5048H89.466ZM98.2579 51.7884C98.2579 51.0461 98.4009 50.3723 98.687 49.7677C98.9777 49.1627 99.3819 48.6885 99.8993 48.3441C100.422 47.995 101.011 47.8204 101.667 47.8204C102.209 47.8204 102.697 47.9337 103.131 48.1599C103.57 48.381 103.92 48.6785 104.181 49.0523C104.447 49.4257 104.649 49.8441 104.787 50.306C104.93 50.7634 105.002 51.2425 105.002 51.7443C105.002 52.4668 104.864 53.126 104.588 53.721C104.312 54.3159 103.915 54.7905 103.397 55.1442C102.884 55.4933 102.303 55.6678 101.652 55.6678C101.075 55.6678 100.565 55.5671 100.121 55.3657C99.6827 55.1589 99.3277 54.8765 99.0567 54.5173C98.7905 54.1536 98.5906 53.7428 98.4577 53.2859C98.3244 52.8285 98.2579 52.3292 98.2579 51.7884ZM100.151 51.6999C100.151 52.2457 100.178 52.735 100.232 53.1675C100.286 53.5955 100.37 53.9765 100.484 54.3109C100.597 54.6403 100.75 54.8937 100.942 55.0708C101.134 55.2474 101.361 55.3359 101.622 55.3359C102.613 55.3359 103.109 54.1536 103.109 51.7884C103.109 51.1934 103.084 50.6824 103.035 50.2544C102.99 49.8264 102.912 49.4505 102.798 49.1261C102.69 48.7964 102.537 48.553 102.34 48.3957C102.142 48.2337 101.903 48.1523 101.622 48.1523C101.361 48.1523 101.134 48.2408 100.942 48.4179C100.75 48.595 100.597 48.8459 100.484 49.1702C100.37 49.4945 100.286 49.8659 100.232 50.2838C100.178 50.7017 100.151 51.1737 100.151 51.6999ZM105.933 48.6319V48.3294L107.479 48.167L108.522 47.8943L108.625 48.1082V49.067H108.655C108.936 48.5899 109.231 48.2631 109.542 48.086C109.853 47.9089 110.225 47.8204 110.659 47.8204C110.772 47.8204 110.893 47.833 111.021 47.8573C111.149 47.8821 111.297 47.9312 111.465 48.005C111.637 48.0738 111.802 48.1649 111.96 48.2778C112.118 48.391 112.273 48.5484 112.426 48.7498C112.584 48.9516 112.719 49.1824 112.833 49.4429C112.946 49.6989 113.037 50.0186 113.106 50.4021C113.18 50.7856 113.217 51.2081 113.217 51.6705C113.217 52.226 113.148 52.7425 113.01 53.2192C112.872 53.6912 112.67 54.1116 112.404 54.4804C112.137 54.8492 111.787 55.1396 111.354 55.351C110.92 55.5621 110.424 55.6678 109.867 55.6678C109.379 55.6678 108.975 55.5428 108.655 55.2919V58.5738L109.416 58.6477V58.9502H106.081V58.6477L106.843 58.5738V48.6319H105.933ZM108.655 54.9008C108.936 55.1517 109.239 55.2772 109.564 55.2772C109.801 55.2772 110.01 55.2302 110.193 55.1371C110.38 55.0435 110.533 54.9281 110.651 54.7905C110.774 54.6524 110.88 54.4733 110.969 54.2517C111.058 54.0256 111.124 53.8141 111.169 53.6178C111.213 53.4159 111.248 53.1776 111.272 52.9024C111.297 52.6267 111.312 52.398 111.317 52.2164C111.322 52.0343 111.324 51.8182 111.324 51.5673C111.324 50.7705 111.267 50.134 111.154 49.6569C111.041 49.1752 110.893 48.848 110.71 48.6759C110.528 48.4989 110.299 48.4103 110.023 48.4103C109.638 48.4103 109.313 48.6122 109.047 49.0154C108.785 49.4186 108.655 49.8709 108.655 50.3723V54.9008Z" fill="#0A171C"/>
<path d="M0 36.5656H29.9637" stroke="#0A171C" stroke-width="2"/>
<path d="M84.0366 36.5656H114" stroke="#0A171C" stroke-width="2"/>
<mask id="mask0_69_5" style="mask-type:luminance" maskUnits="userSpaceOnUse" x="42" y="12" width="30" height="25">
<path d="M71.2931 12.7281H42.707V36.5656H71.2931V12.7281Z" fill="white"/>
</mask>
<g mask="url(#mask0_69_5)">
<path d="M45.3867 21.9666H68.6132M44.6846 22.5647L56.2836 35.7626C56.3681 35.8589 56.4762 35.9371 56.6007 35.9908C56.7248 36.0446 56.8616 36.0725 57 36.0725C57.1384 36.0725 57.2751 36.0446 57.3992 35.9908C57.5237 35.9371 57.6318 35.8589 57.7164 35.7626L69.3153 22.5647C69.4293 22.4344 69.4958 22.2768 69.505 22.1128C69.5147 21.9487 69.4668 21.786 69.3683 21.6463L65.4339 16.075C65.3531 15.9597 65.2395 15.8645 65.1049 15.7984C64.9703 15.7323 64.8184 15.6975 64.664 15.6973H49.3359C49.1815 15.6975 49.0296 15.7323 48.895 15.7984C48.76 15.8645 48.6468 15.9597 48.5661 16.075L44.6316 21.6463C44.5332 21.786 44.4852 21.9487 44.4949 22.1128C44.5041 22.2768 44.5706 22.4344 44.6846 22.5647Z" stroke="#0A171C" stroke-width="2" stroke-linecap="round" stroke-linejoin="round"/>
<path d="M65.0397 16.481L62.3596 21.9666M62.3596 21.9666L56.9999 15.6973L51.6398 21.9666M62.3596 21.9666L56.9999 35.2889L51.6398 21.9666M51.6398 21.9666L48.9602 16.481" stroke="#0A171C" stroke-width="2" stroke-linecap="round" stroke-linejoin="round"/>
</g>
<path d="M53.2985 11.8201C53.2072 9.07489 54.4877 9.58284 58.5109 6.78717C61.803 4.49949 62.2603 3.0506 61.803 0.839157" stroke="#0A171C" stroke-width="2" stroke-linecap="round"/>
<path d="M60.1604 11.9805C60.0965 10.0932 60.9895 10.4424 63.7937 8.52038C66.0884 6.94758 66.4073 5.9515 66.0884 4.43111" stroke="#0A171C" stroke-width="2" stroke-linecap="round"/>
</g>
<defs>
<clipPath id="clip0_69_5">
<rect width="114" height="60" fill="white"/>
</clipPath>
</defs>
</svg>
